<svg height="461pt" viewBox="0 -14 461.06 461" width="461pt" xmlns="http://www.w3.org/2000/svg"><path d="m461.058594 142.28125-39.046875 27.667969 20 43.480469-47.671875 4.390624-4.109375 44.628907v.011719c-6.042969-2.519532-12.324219-4.425782-18.75-5.691407v-1.699219c-.003907-17.253906-5.285157-34.089843-15.140625-48.25 34.402344-20.042968 47.011718-63.5625 28.652344-98.890624-18.359376-35.332032-61.21875-50.023438-97.394532-33.390626-36.171875 16.632813-52.917968 58.738282-38.046875 95.671876-.070312.019531-.128906.027343-.199219.050781-11.945312-19.558594-29.855468-34.761719-51.089843-43.371094l17.328125-12.269531-20-43.492188 47.679687-4.378906 4.378907-47.679688 43.480468 20 27.671875-39.039062 27.667969 39.039062 43.480469-20 4.390625 47.679688 47.671875 4.378906-20 43.492188zm0 0" fill="#fedb41"/><path d="m249.550781 170.210938c8.980469-2.230469 17.960938-3.910157 27.507813-3.910157 33.171875 0 62.441406 16.097657 79.28125 40.519531 9.855468 14.160157 15.136718 30.996094 15.140625 48.25v1.699219c6.425781 1.265625 12.707031 3.171875 18.75 5.691407 33.128906 13.789062 55.890625 44.949218 55.890625 81.378906 0 49.191406-42.410156 88.769531-94.429688 88.769531h-257.261718c-52.019532 0-94.429688-39.578125-94.429688-88.769531 0-36.75 23.179688-67.851563 56.539062-81.417969-18.449218-51.835937 5.242188-109.230469 54.878907-132.957031 49.640625-23.726563 109.183593-6.117188 137.933593 40.796875.070313-.023438.128907-.03125.199219-.050781zm0 0" fill="#00acea"/><path d="m393.449219 142.28125c.011719 26.585938-14.125 51.175781-37.109375 64.539062-16.839844-24.421874-46.109375-40.519531-79.28125-40.519531-9.546875 0-18.527344 1.679688-27.507813 3.910157-11.261719-27.925782-4.644531-59.882813 16.777344-81.042969 21.425781-21.15625 53.460937-27.375 81.246094-15.769531 27.78125 11.609374 45.871093 38.769531 45.875 68.882812zm0 0" fill="#00efd1"/></svg>