<svg height="496pt" viewBox="0 0 496 496" width="496pt" xmlns="http://www.w3.org/2000/svg" xmlns:xlink="http://www.w3.org/1999/xlink"><linearGradient id="a" gradientUnits="userSpaceOnUse" x1="248" x2="248" y1="496" y2="0"><stop offset="0" stop-color="#9f2fff"/><stop offset="1" stop-color="#0bb1d3"/></linearGradient><path d="m432 240c-1.113281 0-2.230469.175781-3.351562.238281-10.402344-37-44.367188-64.238281-84.648438-64.238281-17.136719 0-33.839844 5.039062-48.097656 14.367188-16.832032-41.941407-58.054688-70.367188-103.902344-70.367188-57.664062 0-105.457031 43.71875-111.28125 100.449219-21.613281 8.480469-37.519531 28.34375-40.261719 52.207031-22.890625 3.632812-40.457031 23.449219-40.457031 47.34375 0 26.472656 21.527344 48 48 48h384c35.289062 0 64-28.710938 64-64s-28.710938-64-64-64zm0 112h-384c-17.648438 0-32-14.351562-32-32s14.351562-32 32-32c6.792969 0 13.273438 2.097656 18.734375 6.054688l9.394531-12.949219c-5.863281-4.25-12.511718-7-19.527344-8.265625 3.46875-23.078125 23.367188-40.839844 47.398438-40.839844 26.472656 0 48 21.527344 48 48h16c0-35.289062-28.710938-64-64-64-2.265625 0-4.488281.128906-6.695312.351562 7.496093-45.808593 47.222656-80.351562 94.695312-80.351562 42.574219 0 80.496094 28.609375 92.222656 69.558594l3.441406 12.007812 9.472657-8.140625c13.054687-11.242187 29.703125-17.425781 46.863281-17.425781 39.695312 0 72 32.304688 72 72 0 8.078125-1.328125 16.007812-3.945312 23.566406l15.121093 5.234375c3.199219-9.25 4.824219-18.9375 4.824219-28.800781 0-2.6875-.167969-5.34375-.398438-7.96875.125-.007812.261719-.03125.398438-.03125 26.472656 0 48 21.527344 48 48s-21.527344 48-48 48zm-384 144h-48v-16h32.808594c3.617187-17.734375 19-31.238281 37.617187-31.96875 8.496094-14.757812 24.261719-24.03125 41.574219-24.03125s33.078125 9.273438 41.585938 24.03125c18.613281.730469 34 14.234375 37.613281 31.96875h32.800781v16h-48v-8c0-13.230469-10.769531-24-24-24-.664062 0-1.3125.097656-1.953125.175781l-5.96875.734375-2.664063-5.484375c-5.054687-11.800781-16.597656-19.425781-29.414062-19.425781s-24.359375 7.625-29.414062 19.425781l-2.363282 5.511719-5.957031-.722656c-.953125-.117188-1.601563-.214844-2.265625-.214844-13.230469 0-24 10.769531-24 24zm415.191406-440h32.808594v16h-48v-8c0-13.230469-10.769531-24-24-24-.664062 0-1.3125.097656-1.953125.175781l-5.96875.734375-2.664063-5.484375c-5.054687-11.800781-16.597656-19.425781-29.414062-19.425781s-24.359375 7.625-29.414062 19.425781l-2.363282 5.511719-5.957031-.722656c-.953125-.117188-1.601563-.214844-2.265625-.214844-13.230469 0-24 10.769531-24 24v8h-48v-16h32.808594c3.617187-17.734375 19-31.238281 37.617187-31.96875 8.496094-14.757812 24.261719-24.03125 41.574219-24.03125s33.078125 9.273438 41.585938 24.03125c18.605468.730469 34 14.234375 37.605468 31.96875zm0 0" fill="url(#a)"/></svg>