<?xml version="1.0" encoding="iso-8859-1"?>
<!-- Generator: Adobe Illustrator 19.0.0, SVG Export Plug-In . SVG Version: 6.00 Build 0)  -->
<svg version="1.1" id="Capa_1" xmlns="http://www.w3.org/2000/svg" xmlns:xlink="http://www.w3.org/1999/xlink" x="0px" y="0px"
	 viewBox="0 0 392.197 392.197" style="enable-background:new 0 0 392.197 392.197;" xml:space="preserve">
<g>
	<path style="fill:#D4E1F4;" d="M186.098,241.51h20V342.2h-20V241.51z"/>
	<path style="fill:#D4E1F4;" d="M336.098,372.2h-30c-22.081-0.025-39.975-17.919-40-40v-90.69h20v90.69
		c0.013,11.04,8.96,19.987,20,20h30V372.2z"/>
	<path style="fill:#D4E1F4;" d="M86.098,372.2h-30v-20h30c11.04-0.013,19.987-8.96,20-20v-90.69h20v90.69
		C126.074,354.281,108.18,372.175,86.098,372.2z"/>
</g>
<g>
	<circle style="fill:#00EFD1;" cx="356.098" cy="362.197" r="30"/>
	<circle style="fill:#00EFD1;" cx="196.098" cy="362.197" r="30"/>
	<circle style="fill:#00EFD1;" cx="36.098" cy="362.197" r="30"/>
</g>
<path style="fill:#00ACEA;" d="M276.098,244.63H81.928c-37.338,0.023-67.626-30.226-67.649-67.565
	c-0.011-17.964,7.127-35.193,19.839-47.885c5.755-5.703,12.467-10.35,19.83-13.73c10.18-33.06,40.69-57.47,76.8-57.47
	c5.46-0.021,10.909,0.492,16.27,1.53C163.299,24.42,198.389,0,239.579,0c56.167-0.011,101.709,45.513,101.72,101.68
	c0,0.012,0,0.025,0,0.037c-0.086,4.931-0.427,9.854-1.02,14.75c33.446,16.589,47.112,57.151,30.523,90.597
	c-11.408,23-34.859,37.552-60.533,37.563L276.098,244.63z"/>
<g>
</g>
<g>
</g>
<g>
</g>
<g>
</g>
<g>
</g>
<g>
</g>
<g>
</g>
<g>
</g>
<g>
</g>
<g>
</g>
<g>
</g>
<g>
</g>
<g>
</g>
<g>
</g>
<g>
</g>
</svg>
